<svg xmlns="http://www.w3.org/2000/svg" viewBox="0 0 178.69 18.65"><defs><style>.cls-1{fill:#e7e9f7;}.cls-2{fill:#fff;}</style></defs><title>Asset 87</title><g id="Layer_2" data-name="Layer 2"><g id="Layer_3" data-name="Layer 3"><path class="cls-1" d="M65.91,12.78a5.38,5.38,0,0,1-.85,3,5.59,5.59,0,0,1-2.45,2,9.09,9.09,0,0,1-3.75.72,15.09,15.09,0,0,1-3-.25,11.08,11.08,0,0,1-2.53-.88V13a13.69,13.69,0,0,0,2.89,1.11,10.62,10.62,0,0,0,2.75.4,2.66,2.66,0,0,0,1.59-.37,1.15,1.15,0,0,0,.51-1,1,1,0,0,0-.21-.64,2.2,2.2,0,0,0-.65-.56,26.32,26.32,0,0,0-2.39-1.16,11.1,11.1,0,0,1-2.64-1.55,4.79,4.79,0,0,1-1.31-1.72,5.79,5.79,0,0,1-.42-2.3,4.61,4.61,0,0,1,1.81-3.88,7.94,7.94,0,0,1,5-1.39,14,14,0,0,1,5.7,1.29L64.42,5a10.8,10.8,0,0,0-4.36-1.15,2.3,2.3,0,0,0-1.38.33,1,1,0,0,0-.43.82,1.18,1.18,0,0,0,.55,1,21.41,21.41,0,0,0,3,1.53A8.22,8.22,0,0,1,65,9.76,4.9,4.9,0,0,1,65.91,12.78Z"/><path class="cls-1" d="M83.35.26V11.09a7.3,7.3,0,0,1-2,5.47,7.94,7.94,0,0,1-5.76,1.93,7.88,7.88,0,0,1-5.66-1.88,7.14,7.14,0,0,1-2-5.41V.26h4.88V10.82a4.26,4.26,0,0,0,.72,2.76,2.54,2.54,0,0,0,2.1.87,2.59,2.59,0,0,0,2.16-.86,4.55,4.55,0,0,0,.67-2.8V.26Z"/><path class="cls-1" d="M103.63,18.25H97.25L90.68,5.57h-.11c.16,2,.24,3.52.24,4.57v8.11H86.5V.26h6.35l6.54,12.5h.08c-.12-1.81-.17-3.27-.17-4.37V.26h4.33Z"/><path class="cls-1" d="M118.65,12.78a5.3,5.3,0,0,1-.85,3,5.59,5.59,0,0,1-2.45,2,9.09,9.09,0,0,1-3.75.72,15.16,15.16,0,0,1-3-.25,11.24,11.24,0,0,1-2.53-.88V13a13.9,13.9,0,0,0,2.89,1.11,10.63,10.63,0,0,0,2.76.4,2.65,2.65,0,0,0,1.58-.37,1.15,1.15,0,0,0,.51-1,1.08,1.08,0,0,0-.2-.64,2.41,2.41,0,0,0-.66-.56,24.94,24.94,0,0,0-2.39-1.16,11.53,11.53,0,0,1-2.64-1.55,4.65,4.65,0,0,1-1.3-1.72,5.62,5.62,0,0,1-.43-2.3A4.61,4.61,0,0,1,108,1.39,8,8,0,0,1,113,0a14,14,0,0,1,5.7,1.29L117.16,5a10.76,10.76,0,0,0-4.36-1.15,2.24,2.24,0,0,0-1.37.33A1,1,0,0,0,111,5a1.19,1.19,0,0,0,.54,1,21.41,21.41,0,0,0,3,1.53,8.22,8.22,0,0,1,3.23,2.24A4.84,4.84,0,0,1,118.65,12.78Z"/><path class="cls-1" d="M136.22,18.25h-4.89V10.91h-5.65v7.34H120.8V.26h4.88V6.93h5.65V.26h4.89Z"/><path class="cls-1" d="M139.48,18.25V.26h4.88v18Z"/><path class="cls-1" d="M164.75,18.25h-6.38L151.8,5.57h-.11c.16,2,.24,3.52.24,4.57v8.11h-4.31V.26H154l6.54,12.5h.08c-.12-1.81-.17-3.27-.17-4.37V.26h4.33Z"/><path class="cls-1" d="M178.69,18.25H168V.26h10.68v3.9h-5.82V7h5.39v3.9h-5.39v3.4h5.82Z"/></g><g id="Layer_9" data-name="Layer 9"><path class="cls-2" d="M9.25,18.41H4.39v-14H0v-4H13.63v4H9.25Z"/><path class="cls-2" d="M26.61,18.41,25.73,15H19.88L19,18.41H13.63L19.5.34H26l5.94,18.07Zm-1.89-7.36-.78-3q-.27-1-.66-2.55c-.25-1-.42-1.79-.51-2.24-.07.42-.22,1.11-.43,2.07s-.7,2.85-1.45,5.67Z"/><path class="cls-2" d="M50.08,9.39c0,3-.75,5.33-2.23,6.9s-3.66,2.36-6.52,2.36a8.52,8.52,0,0,1-6.49-2.37q-2.27-2.37-2.26-6.92T34.82,2.5Q37.07.15,41.35.14t6.51,2.35Q50.08,4.83,50.08,9.39Zm-12.38,0q0,5.22,3.63,5.22a3.11,3.11,0,0,0,2.73-1.27A6.9,6.9,0,0,0,45,9.39a6.92,6.92,0,0,0-.91-4,3.07,3.07,0,0,0-2.7-1.29Q37.71,4.12,37.7,9.39Z"/></g></g></svg>